HIERARCHY
ROOT hip
{
  OFFSET 0 0 0
  CHANNELS 6 Xposition Yposition Zposition Zrotation Yrotation Xrotation
  JOINT abdomen
  {
    OFFSET 0 20.6881 -0.73152
    CHANNELS 3 Zrotation Xrotation Yrotation
    JOINT chest
    {
      OFFSET 0 11.7043 -0.48768
      CHANNELS 3 Zrotation Xrotation Yrotation
      JOINT neck
      {
        OFFSET 0 22.1894 -2.19456
        CHANNELS 3 Zrotation Xrotation Yrotation
        JOINT head
        {
          OFFSET -0.24384 7.07133 1.2192
          CHANNELS 3 Zrotation Xrotation Yrotation
          JOINT leftEye
          {
            OFFSET 4.14528 8.04674 8.04672
            CHANNELS 3 Zrotation Xrotation Yrotation
            End Site
            {
              OFFSET 1 0 0
            }
          }
          JOINT rightEye
          {
            OFFSET -3.6576 8.04674 8.04672
            CHANNELS 3 Zrotation Xrotation Yrotation
            End Site
            {
              OFFSET 1 0 0
            }
          }
        }
      }
      JOINT rCollar
      {
        OFFSET -2.68224 19.2634 -4.8768
        CHANNELS 3 Zrotation Xrotation Yrotation
        JOINT rShldr
        {
          OFFSET -8.77824 -1.95073 1.46304
          CHANNELS 3 Zrotation Xrotation Yrotation
          JOINT rForeArm
          {
            OFFSET -28.1742 -1.7115 0.48768
            CHANNELS 3 Zrotation Xrotation Yrotation
            JOINT rHand
            {
              OFFSET -22.5879 0.773209 7.07136
              CHANNELS 3 Zrotation Xrotation Yrotation
              JOINT rThumb1
              {
                OFFSET -1.2192 -0.487915 3.41376
                CHANNELS 3 Zrotation Xrotation Yrotation
                JOINT rThumb2
                {
                  OFFSET -3.37035 -0.52449 3.41376
                  CHANNELS 3 Zrotation Xrotation Yrotation
                  End Site
                  {
                    OFFSET -1.78271 -1.18214 1.43049
                  }
                }
              }
              JOINT rIndex1
              {
                OFFSET -7.75947 0.938293 5.60832
                CHANNELS 3 Zrotation Xrotation Yrotation
                JOINT rIndex2
                {
                  OFFSET -2.54057 -0.884171 1.56538
                  CHANNELS 3 Zrotation Xrotation Yrotation
                  End Site
                  {
                    OFFSET -1.62519 -0.234802 1.16502
                  }
                }
              }
              JOINT rMid1
              {
                OFFSET -8.24714 1.18213 3.41376
                CHANNELS 3 Zrotation Xrotation Yrotation
                JOINT rMid2
                {
                  OFFSET -3.10165 -0.590103 1.0647
                  CHANNELS 3 Zrotation Xrotation Yrotation
                  End Site
                  {
                    OFFSET -2.48547 -0.328903 0.83742
                  }
                }
              }
              JOINT rRing1
              {
                OFFSET -8.82822 0.546677 1.51678
                CHANNELS 3 Zrotation Xrotation Yrotation
                JOINT rRing2
                {
                  OFFSET -2.60934 -0.819778 -0.0198488
                  CHANNELS 3 Zrotation Xrotation Yrotation
                  End Site
                  {
                    OFFSET -2.33842 -0.294052 0.168128
                  }
                }
              }
              JOINT rPinky1
              {
                OFFSET -8.27202 -0.0477905 -0.4584
                CHANNELS 3 Zrotation Xrotation Yrotation
                JOINT rPinky2
                {
                  OFFSET -1.82734 -0.647385 -0.700984
                  CHANNELS 3 Zrotation Xrotation Yrotation
                  End Site
                  {
                    OFFSET -1.69225 -0.51767 -0.607171
                  }
                }
              }
            }
          }
        }
      }
      JOINT lCollar
      {
        OFFSET 2.68224 19.2634 -4.8768
        CHANNELS 3 Zrotation Xrotation Yrotation
        JOINT lShldr
        {
          OFFSET 8.77824 -1.95073 1.46304
          CHANNELS 3 Zrotation Xrotation Yrotation
          JOINT lForeArm
          {
            OFFSET 28.1742 -1.7115 0.48768
            CHANNELS 3 Zrotation Xrotation Yrotation
            JOINT lHand
            {
              OFFSET 22.5879 0.773209 7.07136
              CHANNELS 3 Zrotation Xrotation Yrotation
              JOINT lThumb1
              {
                OFFSET 1.2192 -0.487915 3.41376
                CHANNELS 3 Zrotation Xrotation Yrotation
                JOINT lThumb2
                {
                  OFFSET 3.37035 -0.52449 3.41376
                  CHANNELS 3 Zrotation Xrotation Yrotation
                  End Site
                  {
                    OFFSET 1.78271 -1.18214 1.43049
                  }
                }
              }
              JOINT lIndex1
              {
                OFFSET 7.75947 0.938293 5.60832
                CHANNELS 3 Zrotation Xrotation Yrotation
                JOINT lIndex2
                {
                  OFFSET 2.54057 -0.884171 1.56538
                  CHANNELS 3 Zrotation Xrotation Yrotation
                  End Site
                  {
                    OFFSET 1.62519 -0.234802 1.16502
                  }
                }
              }
              JOINT lMid1
              {
                OFFSET 8.24714 1.18213 3.41376
                CHANNELS 3 Zrotation Xrotation Yrotation
                JOINT lMid2
                {
                  OFFSET 3.10165 -0.590103 1.0647
                  CHANNELS 3 Zrotation Xrotation Yrotation
                  End Site
                  {
                    OFFSET 2.48547 -0.328903 0.83742
                  }
                }
              }
              JOINT lRing1
              {
                OFFSET 8.82822 0.546677 1.51678
                CHANNELS 3 Zrotation Xrotation Yrotation
                JOINT lRing2
                {
                  OFFSET 2.60934 -0.819778 -0.0198488
                  CHANNELS 3 Zrotation Xrotation Yrotation
                  End Site
                  {
                    OFFSET 2.33842 -0.294052 0.168128
                  }
                }
              }
              JOINT lPinky1
              {
                OFFSET 8.27202 -0.0477905 -0.4584
                CHANNELS 3 Zrotation Xrotation Yrotation
                JOINT lPinky2
                {
                  OFFSET 1.82734 -0.647385 -0.700984
                  CHANNELS 3 Zrotation Xrotation Yrotation
                  End Site
                  {
                    OFFSET 1.69225 -0.51767 -0.607171
                  }
                }
              }
            }
          }
        }
      }
    }
  }
  JOINT rButtock
  {
    OFFSET -8.77824 4.35084 1.2192
    CHANNELS 3 Zrotation Xrotation Yrotation
    JOINT rThigh
    {
      OFFSET 0 -1.70687 -2.19456
      CHANNELS 3 Zrotation Xrotation Yrotation
      JOINT rShin
      {
        OFFSET 0 -36.8199 0.73152
        CHANNELS 3 Zrotation Xrotation Yrotation
        JOINT rFoot
        {
          OFFSET 0.73152 -45.1104 -5.12064
          CHANNELS 3 Zrotation Xrotation Yrotation
          End Site
          {
            OFFSET -1.1221 -3.69964 12.103
          }
        }
      }
    }
  }
  JOINT lButtock
  {
    OFFSET 8.77824 4.35084 1.2192
    CHANNELS 3 Zrotation Xrotation Yrotation
    JOINT lThigh
    {
      OFFSET 0 -1.70687 -2.19456
      CHANNELS 3 Zrotation Xrotation Yrotation
      JOINT lShin
      {
        OFFSET 0 -36.8199 0.73152
        CHANNELS 3 Zrotation Xrotation Yrotation
        JOINT lFoot
        {
          OFFSET -0.73152 -45.1104 -5.12064
          CHANNELS 3 Zrotation Xrotation Yrotation
          End Site
          {
            OFFSET 1.1221 -3.69964 12.103
          }
        }
      }
    }
  }
}
MOTION
Frames:	4
Frame Time:	0.03333
-1.9870999999999999 20.6088 9.9282 -128.219716 74.127641 -124.922145 11.251947 19.816932 84.062508 -73.53459 -41.093751 -97.872404 155.496047 -16.182834 101.032315 125.554302 -71.186809 70.702028 -47.503171 -11.746834 26.316006 -38.404596 -0.619309 1.778059 -3.587931 -52.360759 53.789953 -48.678501 40.046709 -71.843477 -104.845553 62.536423 -120.386002 1.182031 -78.546962 -37.714527 -91.480855 41.757581 50.76928 170.928732 -47.521877 70.925815 -154.328949 -9.58027 129.21733 80.455156 37.144886 55.679211 169.365883 18.827933 -139.023927 156.366215 -10.207432 -139.484879 -77.793077 -57.475727 -97.868278 169.468993 -68.28692 154.138219 99.251006 80.385606 -69.70477 -13.372668 -53.766498 -31.411754 -34.265438 -31.745208 51.246393 -53.840909 9.588874 13.741562 -171.217025 -24.582683 -76.559696 -140.764992 -58.076382 -124.129552 165.558787 -17.926142 -54.140773 79.044096 -29.973704 60.470746 -99.111785 -0.388339 20.126784 -179.753291 37.408745 -20.095853 -143.313306 59.230057 18.654675 90.19564 6.611226 38.188299 -65.486128 -69.29532 87.394707 152.911672 1.720155 -40.579019 -11.448375 -26.722009 143.037777 -117.897579 -9.59768 -62.131177 28.093389 27.637543 44.651334 -17.043349 -26.406103 145.421033 -24.904344 -68.339558 13.79426 1.545352 -79.528098 60.246311 50.017557 9.767727 22.367964 -98.732622 -39.044227 77.659699 75.490435 -35.836241 -146.003111 -112.142463 -2.081239 -75.563551
-2.0143 16.8721 9.9041 -132.106495 73.929561 -128.995034 9.250382 19.272202 -26.264152 83.508146 -24.752188 75.758814 154.071726 -26.408375 78.857201 99.911334 -42.930688 43.414424 -56.912558 -6.829611 12.565831 -33.464916 1.561826 -5.191909 145.51158 -6.025551 133.504351 72.097075 18.638571 114.980974 101.794938 54.706527 83.114969 -58.253585 43.729589 19.739537 7.797146 -3.29121 -9.382023 -3.321818 2.454798 -8.298778 50.294728 -74.147901 8.607879 146.90156 70.970734 80.951063 -4.662916 24.677141 -82.030824 29.933549 9.148157 92.953137 -84.716535 -55.386309 -95.641565 29.554282 -60.149595 17.927643 -155.779669 -5.572961 -116.30879 -165.152272 51.442357 -153.222238 109.205494 23.481254 162.594965 43.842492 9.663188 -20.459929 -91.038938 5.489082 111.484077 -178.932711 1.912864 -143.699218 162.295633 -29.509811 -48.073851 178.070217 40.694959 -115.390023 -131.568245 0.34428 32.693102 -119.493239 80.158009 -60.114677 16.112818 -31.277055 -176.258233 33.07694 -56.033296 136.452888 -141.128859 -15.05694 8.363485 135.898289 28.170665 4.151613 -153.282516 -12.791709 -15.224214 131.619777 -4.47071 -26.010172 -11.279451 3.083422 15.450298 44.80571 -15.129169 94.556292 67.690376 -10.982421 122.497591 -150.724575 -60.493249 -71.430681 97.66986 36.255358 48.225254 -142.859988 -3.563603 3.554888 60.613677 57.403511 -78.204758 -130.672867 48.020173 -47.694835
-2.1548000000000003 14.127999999999998 10.024 -135.18195 73.854231 -131.769874 2.032708 11.360568 154.483049 -79.652629 25.056359 -132.18505 132.066953 14.817163 -74.324486 -113.706218 82.229814 -79.292372 -52.831329 -3.275494 6.588441 -24.579131 3.2621 -14.894046 52.456037 -54.629243 90.470147 110.100384 -37.873403 -141.050772 148.723893 60.069327 54.219811 -104.857169 42.258342 63.925538 134.768129 -55.795486 63.899134 -31.999072 -50.71778 -22.064157 64.689522 -68.73465 11.707117 -164.533722 69.41254 21.367857 -45.617239 9.886711 -73.680447 125.729445 -13.248212 5.504629 -121.984603 -49.500349 -132.340931 37.567066 -38.409608 18.759365 -124.934349 -15.036393 -72.066524 -145.745913 32.658743 -99.400996 54.758021 -14.424198 139.153989 -106.117443 55.712211 96.914207 -103.067301 -13.634731 -51.745871 -171.866951 -9.538483 -162.817191 -25.991075 45.48567 -52.430224 99.61559 7.634926 -80.23119 -9.805218 -52.182216 131.86323 2.620878 20.704646 -117.290762 -105.69136 64.202083 6.281768 -28.258329 -24.968779 -58.549067 -131.769696 10.098575 15.383634 -83.939688 -20.707549 156.71219 -8.163965 14.984995 173.206621 -153.416283 -43.84885 -44.787815 -152.738595 63.913821 -29.844162 -132.382114 39.536769 120.152603 3.030882 -62.145161 -140.339628 -105.107889 -56.451676 -166.032074 -63.639261 53.122164 -46.677027 120.211152 -27.747478 -74.832083 -78.104923 -42.101761 10.553705 -111.839199 12.17411 -75.638353
-2.3632 13.930799999999998 10.2291 -142.584915 72.123901 -139.040328 4.168305 14.724532 17.532298 19.879096 -52.121119 -11.52477 136.745548 40.510498 -89.137583 -93.543002 49.174102 -88.45652 -45.183724 -0.66381 1.595254 -24.499998 2.962758 -13.584682 -170.244468 35.134458 117.378556 168.264626 6.494178 63.6414 142.415315 -5.117428 -3.352617 -65.525993 31.087319 22.036071 -89.716455 51.821696 60.722463 177.329605 -61.784472 79.911403 69.394578 -72.342704 10.418415 -164.015241 69.782167 16.544999 146.029379 3.219372 -138.915556 -13.793413 63.503401 -103.491742 122.344211 74.96405 -125.093759 -1.803793 2.085347 -17.634392 -26.675914 31.081159 -34.663721 -88.806678 54.421254 164.397312 -95.229093 57.165834 35.430358 -80.672356 -47.072033 -99.81162 3.411314 -10.599559 -54.500316 -9.929851 52.19334 2.688165 49.418268 64.133883 -124.952803 86.020774 -30.80564 157.586934 -50.152458 -3.88943 44.453517 74.462512 -14.805174 -32.554675 91.994841 23.329002 178.670169 132.973331 64.238499 -49.374077 -61.986288 17.999223 53.648144 58.550464 -5.649177 -4.72119 -122.165655 -16.127933 -0.273914 116.284148 -19.028814 36.301362 -56.637122 17.969127 -25.734095 99.574722 15.002485 152.432328 74.660479 -32.780023 173.586815 113.41344 -8.733184 19.892734 1.858467 8.162427 -12.873165 -29.945733 -73.647097 19.356022 75.471856 45.029826 10.490331 104.807785 -7.869114 70.297095
